<svg version="1.1" id="Layer_1" xmlns="http://www.w3.org/2000/svg" x="0" y="0" viewBox="0 0 1188.3 197.1" xml:space="preserve"><style>.st0{fill:#fff}</style><path class="st0" d="M1.2 99.6V99c0-53.6 40.4-97.5 98.3-97.5 28.3 0 47.4 7.5 63 19.1 4.3 3.2 8.1 9.2 8.1 16.4 0 11.3-9.2 20.2-20.5 20.2-5.7 0-9.4-2.2-12.4-4-11.6-8.6-23.7-13.5-38.5-13.5-31.8 0-54.7 26.4-54.7 58.7v.6c0 32.3 22.3 59.2 54.7 59.2 17.5 0 29.1-5.4 40.9-14.8 3.2-2.7 7.5-4.6 12.4-4.6 10.5 0 19.4 8.6 19.4 19.1 0 6.5-3.2 11.6-7 14.8-17 14.8-36.9 23.7-67 23.7-55.5.1-96.7-42.7-96.7-96.8zM188.6 151.8v-.5c0-31.5 24-46 58.2-46 14.5 0 25 2.4 35.3 5.9v-2.4c0-17-10.5-26.4-31-26.4-11.3 0-20.5 1.6-28.3 4-2.4.8-4 1.1-5.9 1.1-9.4 0-17-7.3-17-16.7 0-7.3 4.6-13.5 11-15.9 12.9-4.8 26.9-7.5 46-7.5 22.3 0 38.5 5.9 48.7 16.2 10.8 10.8 15.6 26.7 15.6 46v65.7c0 11-8.9 19.7-19.9 19.7-11.8 0-19.7-8.3-19.7-17v-.3c-10 11-23.7 18.3-43.6 18.3-27.1 0-49.4-15.7-49.4-44.2zm93.9-9.4v-7.3c-7-3.2-16.2-5.4-26.1-5.4-17.5 0-28.3 7-28.3 19.9v.5c0 11 9.2 17.5 22.3 17.5 19.2.1 32.1-10.4 32.1-25.2zM343.9 67.8c0-11.3 9.2-20.5 20.5-20.5s20.5 9.2 20.5 20.5v6.5c5.9-14 15.6-26.9 27.7-26.9 12.7 0 19.9 8.3 19.9 19.9 0 10.8-7 17.2-15.3 19.1-20.7 4.8-32.3 20.7-32.3 49.8v38.2c0 11.3-9.2 20.5-20.5 20.5s-20.5-9.2-20.5-20.5V67.8zM455.6 173.3c-4.6-3.2-7.8-9.2-7.8-15.6 0-10.8 8.6-19.1 19.4-19.1 5.4 0 9.2 1.9 11.8 3.8 14.3 10.5 29.9 17 48.2 17 17 0 27.2-6.7 27.2-17.8v-.6c0-10.5-6.5-15.9-38-24-38-9.7-62.5-20.2-62.5-57.6v-.5c0-34.2 27.5-56.8 66-56.8 22.9 0 42.8 5.9 59.8 16.7 4.6 2.7 9.2 8.3 9.2 16.4 0 10.8-8.6 19.1-19.4 19.1-4 0-7.3-1.1-10.5-3-13.7-8.1-26.7-12.7-39.6-12.7-15.9 0-24.2 7.3-24.2 16.4v.5c0 12.4 8.1 16.4 40.7 24.8 38.2 10 59.8 23.7 59.8 56.5v.5c0 37.4-28.5 58.4-69.2 58.4-24.8.3-49.9-7.3-70.9-22.4zM622 152.3V84h-1.3c-9.7 0-17.5-7.8-17.5-17.5S611 49 620.7 49h1.3V31c0-11.3 9.2-20.5 20.5-20.5S663 19.7 663 31v18h18c9.7 0 17.5 7.8 17.5 17.5S690.7 84 681 84h-18v61.7c0 9.4 4 14 13.2 14 1.3 0 4-.3 4.8-.3 9.2 0 17 7.5 17 17 0 7.3-4.8 13.2-10.5 15.3-7.5 3-14.5 4-23.4 4-25.1 0-42.1-10-42.1-43.4zM885.6 67.8c0-11.3 9.2-20.5 20.5-20.5s20.5 9.2 20.5 20.5v6.5c5.9-14 15.6-26.9 27.7-26.9 12.7 0 19.9 8.3 19.9 19.9 0 10.8-7 17.2-15.3 19.1-20.7 4.8-32.3 20.7-32.3 49.8v38.2c0 11.3-9.2 20.5-20.5 20.5s-20.5-9.2-20.5-20.5V67.8zM1088.4 188.6c-39.3 18.3-81.2 4.3-99.8-35.7l-.2-.5c-17.4-37.3-5.1-80.5 32.9-98.2 43.7-20.4 79.7 6.5 92.3 33.6 5 10.7.7 21.3-9 25.9l-73.4 34.2c11.5 15.1 27.3 18.5 43.9 10.7 10.2-4.8 17.3-11.9 22.3-21.1 1.8-3.2 3.8-5.3 7.7-7.1 8.3-3.9 17.4-.4 21.2 7.9 2.3 4.9 1.8 9.6.2 13.3-7.1 15.1-19.1 28.1-38.1 37zm-12.7-89.7c-9.9-15.6-24.9-22.2-40.5-15-15.4 7.2-20.3 22.8-15.3 41l55.8-26z"/><path d="M1136.1 169.4v.6c0 14.1 10.9 25 25.6 25 14.7 0 25.6-10.9 25.6-25v-.6c0-14.1-10.9-25-25.6-25-14.8 0-25.6 10.9-25.6 25" fill="#8a6dae"/><path class="st0" d="M709.3 121.9v-.5c0-41.5 33.4-75.1 78.3-75.1 44.7 0 77.8 33.1 77.8 74.6v.5c0 41.5-33.4 75.1-78.3 75.1-44.7 0-77.8-33.1-77.8-74.6zm115.7 0v-.5c0-21.3-15.3-39.8-38-39.8-23.4 0-37.4 18-37.4 39.3v.5c0 21.3 15.3 39.8 38 39.8 23.4 0 37.4-18 37.4-39.3z"/></svg>